<svg xmlns="http://www.w3.org/2000/svg" width="67" height="55" viewBox="0 0 67 55">
  <g id="House" transform="translate(-444 -516)">
    <g id="Portfolio" transform="translate(445.477 507.569)">
      <g id="Rectangle_15" transform="translate(-0.477 26.431)" fill="#fff" stroke="#707070" stroke-width="1">
        <rect width="64" height="37" rx="5" stroke="none"/>
        <rect x="0.5" y="0.5" width="63" height="36" rx="4.5" fill="none"/>
      </g>
    </g>
    <g id="Polygon_24" transform="translate(444 516)" fill="#b0fcf1">
      <path d="M 62.81960678100586 16.50000381469727 L 4.180386066436768 16.50000381469727 C 3.81433629989624 16.50000381469727 3.715636253356934 16.20633316040039 3.694106101989746 16.11632347106934 C 3.672576189041138 16.02632331848145 3.62769627571106 15.71977424621582 3.954116106033325 15.554123878479 L 33.27371597290039 0.6755140423774719 C 33.343505859375 0.6401040554046631 33.42173767089844 0.6213940382003784 33.49998474121094 0.6213940382003784 C 33.57822799682617 0.6213940382003784 33.65646743774414 0.6401040554046631 33.72624588012695 0.6755140423774719 L 63.04587554931641 15.554123878479 C 63.37229537963867 15.71977424621582 63.32741546630859 16.02632331848145 63.30588531494141 16.11632347106934 C 63.28435516357422 16.20633316040039 63.1856575012207 16.50000381469727 62.81960678100586 16.50000381469727 Z" stroke="none"/>
      <path d="M 33.49988555908203 1.121343612670898 L 33.49998474121094 1.121394157409668 L 4.180400848388672 15.99999713897705 C 4.180400848388672 16 4.180400848388672 16.00000190734863 4.180385589599609 16.00000381469727 L 62.8195915222168 16.00000381469727 C 62.8195915222168 16.00000190734863 62.8195915222168 16 62.81960678100586 16.00000381469727 L 33.49988555908203 1.121343612670898 M 33.49998092651367 0.1213893890380859 C 33.6551399230957 0.1213893890380859 33.810302734375 0.1574745178222656 33.9525146484375 0.229644775390625 L 63.27213668823242 15.10825443267822 C 64.21025848388672 15.58431434631348 63.87160491943359 17.00000381469727 62.81960678100586 17.00000381469727 L 4.180385589599609 17.00000381469727 C 3.128387451171875 17.00000381469727 2.78973388671875 15.58431434631348 3.727855682373047 15.10825443267822 L 33.04745483398438 0.229644775390625 C 33.18966674804688 0.1574745178222656 33.34482192993164 0.1213893890380859 33.49998092651367 0.1213893890380859 Z" stroke="none" fill="#707070"/>
    </g>
    <g id="Door" transform="translate(465 553)" fill="#b0fcf1" stroke="#707070" stroke-width="1">
      <rect width="13" height="18" stroke="none"/>
      <rect x="0.5" y="0.5" width="12" height="17" fill="none"/>
    </g>
  </g>
</svg>
